<svg width="256" height="361" viewBox="0 0 256 361" fill="none" xmlns="http://www.w3.org/2000/svg">
<g clip-path="url(#clip0_2_26)">
<path d="M127.844 360.088L23.6619 331.166L0.444946 70.766H255.555L232.314 331.126L127.844 360.088Z" fill="#264DE4"/>
<path d="M212.417 314.547L232.277 92.057H128V337.95L212.417 314.547Z" fill="#2965F1"/>
<path d="M53.669 188.636L56.531 220.573H128V188.636H53.669ZM47.917 123.995L50.82 155.932H128V123.995H47.917ZM128 271.58L127.86 271.617L92.292 262.013L90.018 236.542H57.958L62.432 286.688L127.853 304.848L128 304.808V271.58Z" fill="#EBEBEB"/>
<path d="M60.484 0H99.164V16.176H76.66V32.352H99.166V48.527H60.484V0ZM106.901 0H145.582V14.066H123.077V16.879H145.582V49.231H106.902V34.46H129.407V31.647H106.9L106.901 0ZM153.319 0H192V14.066H169.495V16.879H192V49.231H153.319V34.46H175.824V31.647H153.32V0H153.319Z" fill="url(#paint0_linear_2_26)"/>
<path d="M202.127 188.636L207.892 123.995H127.89V155.932H172.892L169.986 188.636H127.89V220.573H167.217L163.509 261.993L127.889 271.607V304.833L193.362 286.688L193.842 281.292L201.348 197.212L202.127 188.636Z" fill="white"/>
</g>
<defs>
<linearGradient id="paint0_linear_2_26" x1="126.242" y1="0" x2="126.242" y2="49.231" gradientUnits="userSpaceOnUse">
<stop stop-color="white"/>
<stop offset="0.494792" stop-color="#93ECBC"/>
<stop offset="1" stop-color="#3E25D8"/>
</linearGradient>
<clipPath id="clip0_2_26">
<rect width="256" height="361" fill="white"/>
</clipPath>
</defs>
</svg>
