<svg width="512" height="202" viewBox="0 0 512 202" fill="none" xmlns="http://www.w3.org/2000/svg">
<g clip-path="url(#clip0_2_18)">
<path d="M0 0.230997C0 0.230997 20.295 -2.329 33.826 9.657C42.177 17.05 44.61 28.836 44.61 28.836L72.241 136.415L95.223 48.367C97.455 39.009 101.493 27.434 107.872 19.611C116.013 9.648 132.54 9.019 134.302 9.019C136.065 9.019 152.583 9.649 160.717 19.611C167.096 27.434 171.133 39.001 173.374 48.367L196.355 136.415L223.978 28.835C223.978 28.835 226.421 17.051 234.772 9.657C248.303 -2.33 268.59 0.229997 268.59 0.229997L215.678 201.278C215.678 201.278 198.228 202.546 189.49 198.072C178.017 192.196 172.57 187.664 165.62 160.302C162.108 146.307 158.638 132.301 155.212 118.284L153.911 113.004C150.628 99.5924 147.326 86.1854 144.006 72.783L142.747 67.747C141.589 63.181 140.792 60.109 140.507 59.186C139.726 56.659 138.794 50.641 134.295 50.641C129.897 50.641 128.881 56.667 128.084 59.186C127.79 60.109 126.993 63.172 125.843 67.746L124.583 72.783C121.903 83.5546 119.246 94.3316 116.61 105.114L115.318 110.369C111.253 127.028 107.14 143.674 102.979 160.309C96.029 187.664 90.574 192.205 79.099 198.072C70.362 202.546 52.912 201.278 52.912 201.278L0 0.230997ZM318.934 33.578V40.838H318.951V162.2C318.858 187.104 316.45 192.635 305.975 198.368C297.833 202.824 285.377 201.138 285.377 201.138V65.186C285.377 58.363 287.492 53.889 295.29 49.877C299.948 47.477 304.287 45.638 308.803 42.919C314.973 39.226 318.103 34.836 318.791 33.795L318.934 33.578ZM335.738 0.901997C335.738 0.901997 363.075 -3.941 376.614 8.876C384.227 16.086 392.645 28.374 394.551 31.211L394.911 31.748L394.953 31.815L418.791 67.538C419.941 69.393 421.451 71.416 423.869 71.416C426.278 71.416 427.797 69.401 428.955 67.538L452.785 31.815L452.826 31.748L453.187 31.211C455.092 28.374 463.511 16.086 471.132 8.868C484.662 -3.941 512 0.893997 512 0.893997L447.228 101.078L511.824 200.935C511.824 200.935 483.857 204.678 470.318 191.862C461.656 183.67 452.784 170.332 452.784 170.332L428.947 134.618C427.797 132.755 426.277 130.732 423.869 130.732C421.452 130.732 419.941 132.747 418.782 134.618L394.953 170.332C394.953 170.332 386.568 183.67 377.915 191.862C364.376 204.678 335.905 200.935 335.905 200.935L400.502 101.078L335.738 0.901997ZM318.867 0.00399706H318.951C318.951 13.35 317.691 21.282 309.634 27.443C305.894 30.3173 301.769 32.6533 297.38 34.383C292.929 36.1195 288.854 38.696 285.377 41.972C285.377 17.664 288.927 8.859 298.471 3.647C304.405 0.406997 314.15 0.0369971 317.65 0.00399706H318.867Z" fill="black"/>
</g>
<defs>
<clipPath id="clip0_2_18">
<rect width="512" height="202" fill="white"/>
</clipPath>
</defs>
</svg>
