<svg width="847" height="657" viewBox="0 0 847 657" fill="none" xmlns="http://www.w3.org/2000/svg">
<g clip-path="url(#clip0_61_526)">
<path d="M535.849 655.329C535.849 655.329 522.867 623.403 561.813 599.459L535.849 655.329Z" fill="#E6E6E6"/>
<path d="M519.883 654.748C519.883 654.748 515.923 631.993 485.271 632.188L519.883 654.748Z" fill="#E6E6E6"/>
<path d="M812.698 655.329C812.698 655.329 795.547 613.151 847 581.518L812.698 655.329Z" fill="#E6E6E6"/>
<path d="M791.605 654.562C791.605 654.562 786.373 624.499 745.878 624.757L791.605 654.562Z" fill="#E6E6E6"/>
<path d="M491.91 182.627L474.972 173.638L476.239 172.965L493.177 181.954L491.91 182.627Z" fill="#CBCBCB"/>
<path d="M477.135 182.627L475.869 181.954L492.806 172.965L494.073 173.638L477.135 182.627Z" fill="#CBCBCB"/>
<path d="M351.066 112.953L350.249 114.547L355.034 116.996L355.851 115.403L351.066 112.953Z" fill="#CBCBCB"/>
<path d="M450.273 165.754L440.749 160.878L441.567 159.284L451.091 164.16L450.273 165.754ZM431.226 156.002L421.701 151.126L422.519 149.532L432.043 154.409L431.226 156.002ZM412.178 146.251L402.654 141.375L403.471 139.781L412.995 144.657L412.178 146.251ZM393.13 136.499L383.606 131.624L384.423 130.03L393.947 134.905L393.13 136.499ZM374.082 126.748L364.558 121.872L365.375 120.278L374.899 125.154L374.082 126.748Z" fill="#CBCBCB"/>
<path d="M460.615 169.036L459.797 170.629L464.582 173.079L465.4 171.485L460.615 169.036Z" fill="#CBCBCB"/>
<path d="M99.3269 232.818C99.3269 233.378 99.3087 233.932 99.2724 234.482C99.069 237.654 98.267 240.759 96.9086 243.632C96.8981 243.657 96.8858 243.68 96.8753 243.703C96.8121 243.836 96.7471 243.969 96.6805 244.101C96.2765 244.913 95.8283 245.703 95.338 246.467C93.0982 249.974 90.0283 252.876 86.3995 254.916C82.7707 256.956 78.6948 258.072 74.5319 258.165L74.7829 272.583L78.0558 270.862L78.6402 271.972L74.8075 273.988L75.2761 300.767L75.2813 301.124L72.7507 301.687L72.756 301.328L73.5527 258.167C70.202 258.119 66.8942 257.406 63.8214 256.07C60.7486 254.735 57.972 252.802 55.6528 250.386C55.4931 250.221 55.3352 250.051 55.1807 249.883L55.1632 249.863C53.2309 247.758 51.6681 245.342 50.5408 242.717C50.5654 242.745 50.5917 242.772 50.6163 242.8C48.0685 236.847 47.8957 230.147 50.1333 224.072C52.3709 217.996 56.8495 213.006 62.6513 210.123C62.739 210.079 62.8286 210.037 62.9163 209.993C68.6554 207.231 75.2235 206.725 81.3189 208.573C87.4144 210.422 92.5921 214.491 95.8258 219.974C95.9803 220.234 96.1295 220.498 96.2734 220.765C98.2821 224.465 99.3318 228.609 99.3269 232.818Z" fill="#E5E5E5"/>
<path d="M95.9108 243.716C114.281 243.716 129.173 228.838 129.173 210.486C129.173 192.133 114.281 177.255 95.9108 177.255C77.5406 177.255 62.6487 192.133 62.6487 210.486C62.6487 228.838 77.5406 243.716 95.9108 243.716Z" fill="#E5E5E5"/>
<path opacity="0.2" d="M71.3511 188.29C68.2485 195.541 67.8276 203.658 70.1636 211.19C72.4997 218.722 77.4404 225.179 84.103 229.407C90.7656 233.634 98.7159 235.358 106.533 234.268C114.35 233.179 121.525 229.348 126.776 223.461C124.88 227.89 122.044 231.856 118.462 235.081C114.881 238.307 110.64 240.717 106.034 242.143C101.428 243.569 96.5666 243.977 91.7868 243.34C87.0071 242.702 82.4232 241.034 78.3527 238.451C74.2823 235.868 70.8226 232.432 68.2133 228.381C65.6041 224.329 63.9077 219.76 63.2417 214.988C62.5757 210.217 62.956 205.358 64.3562 200.748C65.7565 196.138 68.1432 191.887 71.3511 188.29Z" fill="black"/>
<path d="M97.7102 303.06L94.3131 302.108L94.3202 301.743L95.3382 246.468L95.3891 243.711L95.3901 243.631L95.5683 233.973L95.8258 219.976V219.974L96.0009 210.486H96.0946L96.2738 220.765L96.5069 234.144L96.6738 243.637V243.707L96.681 244.099V244.101L97.0037 262.606L97.0373 264.444L97.704 302.692L97.7102 303.06Z" fill="#3F3D56"/>
<path d="M101.292 260.35L95.794 263.242L96.5603 264.696L102.059 261.804L101.292 260.35Z" fill="#3F3D56"/>
<path d="M527.086 102.94C485.104 100.46 442.995 101.107 401.108 104.875C380.92 106.698 360.41 108.667 340.595 113.066C324.634 116.61 306.11 122.6 296.165 136.55C294.083 139.361 292.679 142.615 292.064 146.058C291.45 149.501 291.641 153.039 292.622 156.396C294.994 164.348 300.892 170.968 307.174 176.153C321.632 188.086 339.571 195.03 355.595 204.51C384.852 221.819 411.629 245.15 428.816 274.788C436.378 287.829 443.572 305.17 435.151 319.541C426.901 333.619 408.484 338.469 393.465 340.757C374.639 343.624 355.248 342.846 336.344 341.241C315.619 339.31 295.01 336.294 274.602 332.206C234.62 324.536 195.003 314.78 154.466 310.343C134.14 307.954 113.643 307.362 93.2132 308.573C74.7627 309.817 56.1542 312.732 38.8214 319.379C25.4649 324.501 11.2276 332.25 4.01299 345.173C-2.94159 357.63 -0.229082 371.996 7.34359 383.489C16.4551 397.318 30.6631 406.795 45.4348 413.721C62.2537 421.607 80.2431 426.719 98.2555 431.067C107.391 433.271 116.576 435.264 125.761 437.247C127.678 437.661 128.496 434.721 126.573 434.305C108.05 430.307 89.4724 426.295 71.4088 420.506C54.6928 415.149 37.5863 408.287 23.8974 397.039C12.8231 387.939 2.29372 374.647 2.94737 359.535C3.60631 344.3 16.4005 333.663 28.9406 327.116C44.6122 318.934 62.4174 314.948 79.8643 312.865C99.8414 310.641 119.988 310.368 140.018 312.048C180.46 315.122 219.998 324.326 259.649 332.354C298.17 340.152 337.893 347.374 377.369 345.374C393.015 344.581 409.781 342.341 423.596 334.451C429.922 330.838 435.625 325.743 438.84 319.113C441.736 312.805 442.652 305.769 441.467 298.931C439.227 283.909 430.296 269.98 421.386 258.015C411.618 245.038 400.287 233.312 387.65 223.103C373.78 211.951 358.826 202.219 343.011 194.051C334.625 189.64 326.119 185.398 318.127 180.289C310.464 175.39 302.904 169.495 298.225 161.542C294.177 154.664 293.435 146.813 297.651 139.837C301.915 132.781 309.261 127.86 316.505 124.264C333.96 115.6 354.253 113.28 373.349 110.904C414.354 105.819 455.678 103.76 496.985 104.745C507.026 104.981 517.059 105.396 527.086 105.991C529.05 106.106 529.043 103.055 527.086 102.94Z" fill="black"/>
<path d="M500.453 5.13815L506.795 0.0709651C501.868 -0.472046 499.844 2.21219 499.016 4.33678C495.167 2.74015 490.977 4.8326 490.977 4.8326L503.666 9.43451C503.025 7.72642 501.911 6.23606 500.453 5.13815Z" fill="#3F3D56"/>
<path d="M469.677 21.18L476.019 16.1128C471.092 15.5698 469.068 18.254 468.24 20.3786C464.391 18.782 460.201 20.8745 460.201 20.8745L472.889 25.4764C472.249 23.7683 471.135 22.2779 469.677 21.18Z" fill="#3F3D56"/>
<path d="M500.453 46.5795L506.795 41.5124C501.868 40.9694 499.844 43.6536 499.016 45.7782C495.167 44.1815 490.977 46.274 490.977 46.274L503.666 50.8759C503.025 49.1678 501.911 47.6775 500.453 46.5795Z" fill="#3F3D56"/>
<path d="M405.384 54.087C415.936 54.087 424.49 45.541 424.49 34.9989C424.49 24.4569 415.936 15.9109 405.384 15.9109C394.832 15.9109 386.278 24.4569 386.278 34.9989C386.278 45.541 394.832 54.087 405.384 54.087Z" fill="#FF6583"/>
<path d="M465.298 93.8182H371.568C371.451 93.8197 371.333 93.8104 371.218 93.7904L415.548 17.0819C415.819 16.6041 416.211 16.2065 416.686 15.9299C417.161 15.6533 417.7 15.5076 418.25 15.5076C418.799 15.5076 419.339 15.6533 419.813 15.9299C420.288 16.2065 420.681 16.6041 420.951 17.0819L450.701 68.5575L452.126 71.0203L465.298 93.8182Z" fill="#F400B0"/>
<path d="M517.482 93.8191H436.415L452.124 71.0231L453.254 69.3803L473.724 39.6731C474.086 39.2185 474.539 38.8452 475.055 38.5774C475.571 38.3096 476.138 38.1533 476.718 38.1187C477.298 38.0841 477.879 38.1719 478.424 38.3765C478.968 38.581 479.463 38.8978 479.876 39.306C479.982 39.422 480.081 39.5446 480.171 39.6731L517.482 93.8191Z" fill="#F400B0"/>
<path d="M383.758 269.751C392.642 274.187 398.051 280.047 398.051 286.473C398.051 300.317 372.977 311.539 342.046 311.539C328.598 311.539 316.261 309.416 306.607 305.88C316.861 311.001 331.746 314.225 348.319 314.225C379.249 314.225 404.324 303.002 404.324 289.159C404.324 281.334 396.309 274.348 383.758 269.751Z" fill="#F1F1F1"/>
<path d="M403.52 279.26C413.544 284.266 419.648 290.878 419.648 298.129C419.648 313.75 391.354 326.413 356.453 326.413C341.279 326.413 327.357 324.018 316.464 320.028C328.034 325.806 344.83 329.444 363.531 329.444C398.432 329.444 426.726 316.781 426.726 301.16C426.726 292.33 417.682 284.447 403.52 279.26Z" fill="#F1F1F1"/>
<path d="M376.195 273.94C382.454 277.065 386.265 281.193 386.265 285.721C386.265 295.474 368.599 303.381 346.808 303.381C338.318 303.49 329.873 302.142 321.84 299.394C329.064 303.001 339.551 305.273 351.227 305.273C373.019 305.273 390.684 297.366 390.684 287.613C390.684 282.1 385.038 277.178 376.195 273.94Z" fill="#F1F1F1"/>
<path d="M288.25 272.149C288.25 272.149 289.626 292.234 329.053 292.234C368.48 292.234 380.252 272.149 380.252 272.149H288.25Z" fill="#3F3D56"/>
<path d="M344.213 219.452C338.521 215.132 331.377 213.179 324.277 214.003C330.622 215.532 336.226 219.244 340.105 224.488C343.983 229.733 345.889 236.175 345.488 242.683C345.087 249.192 342.404 255.351 337.91 260.081C333.416 264.81 327.399 267.807 320.914 268.546C327.117 270.042 333.646 269.358 339.405 266.611C345.163 263.863 349.799 259.218 352.533 253.458C355.266 247.697 355.932 241.172 354.417 234.979C352.902 228.786 349.298 223.303 344.213 219.452Z" fill="#3F3D56"/>
<path d="M331.293 210.379H328.605V274.307H331.293V210.379Z" fill="#3F3D56"/>
<path d="M507.962 162.88L507.948 162.855L507.912 161.294L516.333 149.078L507.922 160.125L507.892 160.455L507.604 147.969L514.878 135.304L507.583 145.775L507.659 119.907L507.659 119.821L507.657 119.906L507.174 140.293L500.544 132.012L507.152 142.05L507.007 153.218L500.907 142.318L506.985 154.86L506.904 161.07L506.681 178.276L506.665 179.561C507.227 179.566 507.783 179.556 508.333 179.533L507.952 163.007L507.962 162.88Z" fill="#CBCBCB"/>
<path d="M467.639 168.251L467.624 168.226L467.588 166.665L476.01 154.449L467.598 165.496L467.568 165.826L467.28 153.34L474.554 140.675L467.259 151.147L467.336 125.279L467.335 125.193L467.333 125.277L466.85 145.665L460.22 137.383L466.828 147.421L466.684 158.59L460.583 147.69L466.661 160.231L466.58 166.442L466.358 183.647L466.342 184.933C466.903 184.937 467.459 184.928 468.01 184.905L467.628 168.379L467.639 168.251Z" fill="#CBCBCB"/>
<path d="M487.353 151.242L487.338 151.217L487.302 149.656L495.724 137.44L487.312 148.487L487.282 148.817L486.994 136.331L494.268 123.666L486.973 134.137L487.049 108.269L487.049 108.183L487.047 108.268L486.564 128.655L479.934 120.374L486.542 130.412L486.397 141.58L480.297 130.68L486.375 143.222L486.294 149.432L486.071 166.638L486.055 167.923C486.617 167.928 487.173 167.918 487.724 167.895L487.342 151.369L487.353 151.242Z" fill="#CBCBCB"/>
<path d="M154.318 448.509C160.256 448.509 165.071 443.7 165.071 437.767C165.071 431.833 160.256 427.024 154.318 427.024C148.379 427.024 143.565 431.833 143.565 437.767C143.565 443.7 148.379 448.509 154.318 448.509Z" fill="#F400B0"/>
<path d="M728.272 636.069L718.317 639.763L699.313 603.161L714.006 597.707L728.272 636.069Z" fill="#FFB7B7"/>
<path d="M734.396 644.766L702.297 656.681L702.146 656.275C700.915 652.965 701.051 649.302 702.523 646.091C703.996 642.881 706.684 640.386 709.998 639.156L729.603 631.878L734.396 644.766Z" fill="#2F2E41"/>
<path d="M630.303 646.396L619.684 646.395L614.631 605.472L630.305 605.473L630.303 646.396Z" fill="#FFB7B7"/>
<path d="M632.146 656.681L597.903 656.68V656.247C597.903 652.715 599.307 649.329 601.807 646.832C604.306 644.335 607.696 642.932 611.231 642.931L632.146 642.932L632.146 656.681Z" fill="#2F2E41"/>
<path d="M678.925 362.575L675.46 355.652L646.008 370.364L646.874 376.422L641.244 383.778C641.244 383.778 631.715 388.97 633.447 406.278L635.18 422.721L637.345 443.924L622.186 496.281L614.39 565.514L608.76 621.333L636.046 620.035L661.167 529.167L705.345 626.958L735.663 619.169L694.084 522.243L688.886 481.569C688.886 481.569 692.351 459.934 675.893 445.222L678.492 437.433V427.835L687.154 382.047L678.925 362.575Z" fill="#2F2E41"/>
<path opacity="0.2" d="M679.734 461.527L660.677 529.028L661.657 529.305L680.714 461.803L679.734 461.527Z" fill="black"/>
<path d="M678.058 443.924H635.613V448.251H678.058V443.924Z" fill="#3F3D56"/>
<path d="M635.613 450.847C636.57 450.847 637.346 448.91 637.346 446.52C637.346 444.13 636.57 442.193 635.613 442.193C634.656 442.193 633.881 444.13 633.881 446.52C633.881 448.91 634.656 450.847 635.613 450.847Z" fill="#3F3D56"/>
<path d="M665.829 351.383C677.019 345.272 681.131 331.256 675.014 320.077C668.898 308.898 654.868 304.79 643.679 310.901C632.49 317.012 628.377 331.028 634.494 342.207C640.611 353.385 654.64 357.494 665.829 351.383Z" fill="#FFB7B7"/>
<path d="M690.087 322.907C701.369 322.907 710.514 313.77 710.514 302.499C710.514 291.229 701.369 282.092 690.087 282.092C678.806 282.092 669.66 291.229 669.66 302.499C669.66 313.77 678.806 322.907 690.087 322.907Z" fill="#2F2E41"/>
<path d="M716.009 300.313C716.815 303.017 717.051 305.859 716.702 308.658C716.353 311.458 715.427 314.155 713.982 316.579C712.537 319.003 710.604 321.101 708.307 322.741C706.009 324.381 703.396 325.528 700.633 326.108C697.869 326.689 695.016 326.69 692.251 326.113C689.487 325.536 686.873 324.393 684.573 322.755C682.274 321.118 680.339 319.022 678.891 316.6C677.444 314.177 676.514 311.482 676.162 308.682C677.625 313.592 680.883 317.772 685.289 320.393C689.694 323.013 694.925 323.883 699.943 322.829C704.961 321.775 709.398 318.875 712.374 314.704C715.351 310.533 716.648 305.396 716.009 300.313Z" fill="#2F2E41"/>
<path d="M635.311 324.737C634.712 330.012 635.87 335.338 638.608 339.888C641.345 344.438 645.508 347.96 650.452 349.907C655.396 351.853 660.844 352.117 665.953 350.656C671.062 349.195 675.546 346.092 678.71 341.827C681.875 337.562 683.543 332.373 683.456 327.065C683.369 321.757 681.532 316.625 678.23 312.466C674.928 308.306 670.345 305.351 665.191 304.058C660.037 302.764 654.6 303.205 649.723 305.313C645.689 302.062 640.688 303.07 636.622 306.5C632.024 310.378 630.659 313.043 627.093 319.421C630.6 319.913 631.805 324.245 635.311 324.737Z" fill="#2F2E41"/>
<path d="M720.185 394.11C719.927 400.946 719.415 414.402 719.415 415.089C719.415 415.813 709.204 436.935 704.792 446.026V446.03C704.478 446.671 704.197 447.252 703.948 447.764C703.607 448.469 703.07 449.062 702.402 449.472C701.734 449.882 700.962 450.093 700.178 450.078L680.9 449.732C679.84 449.714 678.829 449.288 678.076 448.542C677.324 447.796 676.889 446.789 676.862 445.731L674.712 360.997C674.705 360.718 674.754 360.44 674.856 360.18C674.958 359.919 675.111 359.682 675.306 359.482C675.502 359.282 675.735 359.123 675.993 359.014C676.25 358.905 676.527 358.849 676.807 358.849H701.668C702.719 358.85 703.747 359.146 704.637 359.703C705.526 360.261 706.241 361.058 706.698 362.002L718.63 386.665C719.749 388.983 720.283 391.539 720.185 394.11Z" fill="#F400B0"/>
<path d="M676.527 439.916C671.58 436.921 667.135 433.168 663.355 428.794C654.571 418.924 649.228 406.474 648.13 393.312C647.15 382.051 649.387 373.681 654.778 368.433C661.63 361.762 670.958 362.731 671.352 362.776L671.769 362.824L678.089 368.166L676.301 370.277L670.646 365.497C668.915 365.41 661.849 365.392 656.687 370.436C651.936 375.079 649.985 382.695 650.888 393.073C651.933 405.604 657.007 417.462 665.352 426.876C668.952 431.036 673.172 434.617 677.863 437.494L676.527 439.916Z" fill="#F400B0"/>
<path d="M712.401 407.725L678.716 414.636L678.902 415.539L712.587 408.628L712.401 407.725Z" fill="#3F3D56"/>
<path d="M690.2 358.83L689.277 358.868L691.465 412.415L692.387 412.378L690.2 358.83Z" fill="#3F3D56"/>
<path d="M720.185 394.11C719.927 400.946 719.415 414.402 719.415 415.089C719.415 415.813 709.204 436.935 704.792 446.026L713.015 398.328C713.333 396.493 714.133 394.775 715.334 393.35C716.535 391.925 718.093 390.845 719.848 390.219C720.125 391.497 720.238 392.804 720.185 394.11Z" fill="#3F3D56"/>
<path d="M669.667 494.072C670.395 493.135 670.908 492.049 671.171 490.892C671.434 489.735 671.439 488.535 671.187 487.376C670.935 486.216 670.432 485.126 669.713 484.182C668.994 483.238 668.076 482.463 667.025 481.912L668.696 463.443L657.709 459.691L655.716 485.806C654.906 487.632 654.795 489.691 655.403 491.594C656.011 493.496 657.297 495.11 659.016 496.129C660.736 497.148 662.77 497.501 664.733 497.122C666.696 496.743 668.451 495.658 669.667 494.072Z" fill="#FFB7B7"/>
<path d="M671.102 476.201L651.635 475.496L652.458 381.703C652.444 379.049 653.266 376.457 654.806 374.295C656.347 372.133 658.529 370.509 661.043 369.653C663.393 368.873 665.933 368.87 668.284 369.646C670.951 370.548 673.241 372.312 674.793 374.658C676.346 377.005 677.072 379.801 676.857 382.606L671.102 476.201Z" fill="#CBCBCB"/>
<path d="M841.882 657H454.026C453.756 657 453.497 656.893 453.306 656.702C453.115 656.511 453.008 656.253 453.008 655.983C453.008 655.713 453.115 655.455 453.306 655.264C453.497 655.073 453.756 654.966 454.026 654.966H841.882C842.152 654.966 842.411 655.073 842.602 655.264C842.793 655.455 842.9 655.713 842.9 655.983C842.9 656.253 842.793 656.511 842.602 656.702C842.411 656.893 842.152 657 841.882 657Z" fill="#CBCBCB"/>
</g>
<defs>
<clipPath id="clip0_61_526">
<rect width="847" height="657" fill="white"/>
</clipPath>
</defs>
</svg>
