<svg width="23" height="23" viewBox="0 0 23 23" fill="none" xmlns="http://www.w3.org/2000/svg">
<path d="M7.66618 18.2445C7.66618 18.3369 7.5599 18.4109 7.42589 18.4109C7.2734 18.4247 7.16712 18.3508 7.16712 18.2445C7.16712 18.1521 7.2734 18.0781 7.40741 18.0781C7.54604 18.0643 7.66618 18.1382 7.66618 18.2445ZM6.22906 18.0366C6.19672 18.129 6.28914 18.2353 6.42777 18.263C6.54791 18.3092 6.68654 18.263 6.71427 18.1706C6.74199 18.0781 6.65419 17.9719 6.51556 17.9303C6.39542 17.8979 6.26141 17.9441 6.22906 18.0366ZM8.27153 17.958C8.13752 17.9903 8.0451 18.0781 8.05897 18.1844C8.07283 18.2768 8.19298 18.3369 8.3316 18.3046C8.46561 18.2722 8.55803 18.1844 8.54417 18.092C8.53031 18.0042 8.40554 17.9441 8.27153 17.958ZM11.3121 0.25045C4.90285 0.25045 0 5.11633 0 11.5256C0 16.6503 3.22544 21.0356 7.83254 22.579C8.42402 22.6852 8.63197 22.3202 8.63197 22.0198C8.63197 21.7333 8.6181 20.153 8.6181 19.1826C8.6181 19.1826 5.38343 19.8757 4.70414 17.8055C4.70414 17.8055 4.17735 16.4608 3.41952 16.1142C3.41952 16.1142 2.36131 15.3887 3.49345 15.4026C3.49345 15.4026 4.64407 15.495 5.27714 16.5948C6.28914 18.3785 7.98503 17.8656 8.64583 17.5606C8.75211 16.8212 9.05248 16.3083 9.38519 16.0033C6.80206 15.7168 4.19584 15.3425 4.19584 10.8972C4.19584 9.62639 4.54703 8.9887 5.28639 8.17541C5.16624 7.87505 4.77346 6.63663 5.40653 5.03777C6.37231 4.73741 8.595 6.28543 8.595 6.28543C9.51919 6.02666 10.5127 5.89265 11.497 5.89265C12.4812 5.89265 13.4747 6.02666 14.3989 6.28543C14.3989 6.28543 16.6216 4.73279 17.5874 5.03777C18.2205 6.64125 17.8277 7.87505 17.7075 8.17541C18.4469 8.99332 18.8998 9.63101 18.8998 10.8972C18.8998 15.3564 16.178 15.7122 13.5949 16.0033C14.02 16.3684 14.3805 17.0615 14.3805 18.1475C14.3805 19.7047 14.3666 21.6317 14.3666 22.0106C14.3666 22.3109 14.5792 22.676 15.166 22.5697C19.787 21.0356 22.92 16.6503 22.92 11.5256C22.92 5.11633 17.7214 0.25045 11.3121 0.25045ZM4.49158 16.1882C4.43151 16.2344 4.44537 16.3407 4.52393 16.4285C4.59786 16.5024 4.70414 16.5347 4.76422 16.4747C4.82429 16.4285 4.81043 16.3222 4.73187 16.2344C4.65794 16.1604 4.55165 16.1281 4.49158 16.1882ZM3.99252 15.8139C3.96017 15.8739 4.00638 15.9479 4.0988 15.9941C4.17273 16.0403 4.26515 16.0264 4.2975 15.9617C4.32985 15.9017 4.28364 15.8277 4.19122 15.7815C4.0988 15.7538 4.02486 15.7677 3.99252 15.8139ZM5.48971 17.4589C5.41577 17.519 5.4435 17.6576 5.54978 17.7454C5.65606 17.8517 5.79007 17.8656 5.85014 17.7916C5.91022 17.7316 5.88249 17.5929 5.79007 17.5051C5.68841 17.3989 5.54978 17.385 5.48971 17.4589ZM4.96292 16.7797C4.88898 16.8259 4.88898 16.946 4.96292 17.0523C5.03685 17.1586 5.16162 17.2048 5.22169 17.1586C5.29563 17.0985 5.29563 16.9784 5.22169 16.8721C5.157 16.7658 5.03685 16.7196 4.96292 16.7797Z" fill="black"/>
</svg>
