<svg width="53" height="53" viewBox="0 0 53 53" fill="none" xmlns="http://www.w3.org/2000/svg">
<path d="M47.25 0H5.67C2.53969 0 0 2.53969 0 5.67V47.25C0 50.3803 2.53969 52.92 5.67 52.92H47.25C50.3803 52.92 52.92 50.3803 52.92 47.25V5.67C52.92 2.53969 50.3803 0 47.25 0ZM32.7561 45.3246C31.7638 45.5018 31.3976 44.8875 31.3976 44.3796C31.3976 43.7417 31.4212 40.4814 31.4212 37.8472C31.4212 36.0045 30.807 34.8351 30.0864 34.2208C34.4571 33.7365 39.0639 33.1341 39.0639 25.5859C39.0639 23.436 38.2961 22.3611 37.044 20.979C37.2448 20.4711 37.9181 18.3803 36.8432 15.6634C35.2012 15.1554 31.4449 17.7778 31.4449 17.7778C29.8856 17.3407 28.1964 17.1163 26.5309 17.1163C24.8653 17.1163 23.1761 17.3407 21.6169 17.7778C21.6169 17.7778 17.8605 15.1554 16.2186 15.6634C15.1436 18.3684 15.8051 20.4593 16.0178 20.979C14.7656 22.3611 14.175 23.436 14.175 25.5859C14.175 33.0986 18.5811 33.7365 22.9517 34.2208C22.3847 34.7288 21.8767 35.6029 21.6996 36.855C20.5774 37.3629 17.7069 38.2371 15.9941 35.2131C14.9192 33.3467 12.9819 33.1931 12.9819 33.1931C11.0683 33.1695 12.852 34.398 12.852 34.398C14.1278 34.9886 15.0255 37.2566 15.0255 37.2566C16.1713 40.7649 21.6523 39.5837 21.6523 39.5837C21.6523 41.2256 21.6759 43.8953 21.6759 44.3796C21.6759 44.8875 21.3216 45.5018 20.3175 45.3246C12.5212 42.714 7.06387 35.2957 7.06387 26.6254C7.06387 15.7815 15.3562 7.54819 26.2001 7.54819C37.044 7.54819 45.8325 15.7815 45.8325 26.6254C45.8443 35.2957 40.5523 42.7258 32.7561 45.3246ZM21.168 38.1071C20.9436 38.1544 20.7309 38.0599 20.7073 37.9063C20.6837 37.7291 20.8373 37.5756 21.0617 37.5283C21.2861 37.5047 21.4987 37.5992 21.5224 37.7528C21.5578 37.9063 21.4042 38.0599 21.168 38.1071ZM20.0458 38.0008C20.0458 38.1544 19.8686 38.2843 19.6324 38.2843C19.3725 38.3079 19.1953 38.178 19.1953 38.0008C19.1953 37.8473 19.3725 37.7173 19.6087 37.7173C19.8332 37.6937 20.0458 37.8236 20.0458 38.0008ZM18.4275 37.8709C18.3802 38.0244 18.144 38.0953 17.9432 38.0244C17.7187 37.9772 17.5652 37.8 17.6124 37.6464C17.6597 37.4929 17.8959 37.422 18.0967 37.4693C18.333 37.5401 18.4866 37.7173 18.4275 37.8709ZM16.9746 37.233C16.8682 37.3629 16.6438 37.3393 16.4666 37.1621C16.2894 37.0086 16.2422 36.7841 16.3603 36.6778C16.4666 36.5479 16.6911 36.5715 16.8683 36.7487C17.0218 36.9023 17.0809 37.1385 16.9746 37.233ZM15.8996 36.1581C15.7933 36.2289 15.5925 36.1581 15.4626 35.9809C15.3326 35.8037 15.3326 35.6029 15.4626 35.5202C15.5925 35.4139 15.7933 35.4966 15.8996 35.6737C16.0296 35.8509 16.0296 36.0636 15.8996 36.1581ZM15.1318 35.0122C15.0255 35.1186 14.8483 35.0595 14.7184 34.9414C14.5884 34.7878 14.5648 34.6106 14.6711 34.5279C14.7774 34.4216 14.9546 34.4807 15.0846 34.5988C15.2145 34.7524 15.2381 34.9296 15.1318 35.0122ZM14.3404 34.1381C14.2931 34.2444 14.1396 34.2681 14.0096 34.1854C13.8561 34.1145 13.7852 33.9846 13.8324 33.8782C13.8797 33.8074 14.0096 33.7719 14.1632 33.831C14.3168 33.9137 14.3876 34.0436 14.3404 34.1381Z" fill="black"/>
</svg>
